# xmcd CD database file generated by LOLA_Freedb v0.9beta0
# 
# Track frame offsets:
#      150
#      17264
#      34002
#      54596
#      68198
#      85671
#      102401
#      120474
#      135233
#      152528
#      166299
#      182647
#      201438
#      215991
# 
# Disc length: 3188 seconds
# 
# Revision: 0 
# Processed by: cddbd v1.5.2PL0 Copyright (c) Steve Scherf et al.
# Submitted via: LOLA_Freedb v0.9beta0
# 
DISCID=b60c720e
DTITLE=Jolina Carl - Lieber jetzt als irgendwann
DYEAR=2009
DGENRE=
TTITLE0=Jolina Carl - I Love It To Love You
TTITLE1=Jolina Carl - Nur mit dir
TTITLE2=Jolina Carl - just One Second
TTITLE3=Jolina Carl - Wen uns're Liebe noch lebt
TTITLE4=Jolina Carl - Same Old Moon
TTITLE5=Jolina Carl - Lieber jetzt als irgendwann
TTITLE6=Jolina Carl and Cody Jinks - I Hope You Stay
TTITLE7=Jolina Carl - Country auf gut deutsch
TTITLE8=Jolina Carl - Up There
TTITLE9=Jolina Carl - Ich hab dich satt
TTITLE10=Jolina Carl - Can't Stay Anymore
TTITLE11=Jolina Carl - Du bist mein Held
TTITLE12=Jolina Carl - Feels Like I'm In Heaven
TTITLE13=Jolina Carl - Wer ist sie
EXTD=
EXTT0=
EXTT1=
EXTT2=
EXTT3=
EXTT4=
EXTT5=
EXTT6=
EXTT7=
EXTT8=
EXTT9=
EXTT10=
EXTT11=
EXTT12=
EXTT13=
PLAYORDER=
